<svg data-name="Ebene 1" xmlns="http://www.w3.org/2000/svg" width="441.32mm" height="736.932" viewBox="0 0 1250.98 552.71"><path fill="#dd0c29" stroke="#000" stroke-miterlimit="10" stroke-width=".25" d="M.13 71.32h107.99V410.3H.13zm125 0h107.99V410.3H125.13zm125 0h107.99V410.3H250.13z"/><path fill="#dd0c29" d="M848.87 71.32h104.99v104.99H848.87zm351.99 338.98h-104.99V188.31h104.99zm-121.92-116.99H848.88V188.32h230.06zm-125.07 117H848.88V305.32h104.99zm123.49 0H972.37V305.32h104.99zm123.98-234h-231.4V71.32h231.4zM29.88 20.32h298.48"/><path fill="none" stroke="#dd0c29" stroke-miterlimit="10" stroke-width="5" d="M47.74 20.32h245.32"/><circle cx="48.68" cy="20.32" r="18.8" fill="#dd0c29"/><path fill="#dd0c29" d="M328.37 20.32l-49.75 20.33 11.8-20.33L278.62 0l49.75 20.32zm547.49 0h298.49"/><path fill="none" stroke="#dd0c29" stroke-miterlimit="10" stroke-width="5" d="M893.72 20.32h245.32"/><circle cx="894.66" cy="20.32" r="18.8" fill="#dd0c29"/><path fill="#dd0c29" d="M1174.35 20.32l-49.75 20.33 11.8-20.33L1124.6 0l49.75 20.32zm56.31 73.25v298.48"/><path fill="none" stroke="#dd0c29" stroke-miterlimit="10" stroke-width="5" d="M1230.66 111.43v245.32"/><circle cx="1230.66" cy="112.37" r="18.8" fill="#dd0c29"/><path fill="#dd0c29" d="M1230.66 392.05l-20.33-49.74 20.33 11.8 20.32-11.8-20.32 49.74z"/><path d="M92.92 495.01h4.42v-28.18h-4.42v-2.78h22.68v7.17h-3V467h-11.9v12.72h12.34v2.88h-12.35v12.38h4.7v2.78H92.92zm28.89-28.27h-4.27v-2.69h7.54v27.46c0 2 .53 3.6 2.74 3.6a7.61 7.61 0 0 0 1.34-.1v2.78a13.69 13.69 0 0 1-1.87.14c-3.17 0-5.47-1.58-5.47-6.19zm22.9 6.33c6.67 0 10.13 5.14 10.13 11.14a13.62 13.62 0 0 1-.14 1.54h-18.53c.14 6.19 4.37 9.7 9.36 9.7a11.31 11.31 0 0 0 7.34-2.88l1.49 2.45a13.68 13.68 0 0 1-8.93 3.36 12.2 12.2 0 0 1-12.62-12.62c0-7.93 5.37-12.69 11.9-12.69zm6.72 10.27c-.19-5.09-3.26-7.54-6.82-7.54-4 0-7.54 2.64-8.31 7.54zm7.01 11.77h3.84l6.19-9.84-5.66-8.93h-4.13v-2.69h6.1l4.85 8c.38.62.77 1.39.77 1.39h.1s.34-.72.77-1.44l4.94-7.92h5.86v2.69h-4l-5.71 8.85 6.29 9.84h3.65v2.69h-5.7l-5.42-8.88a13.31 13.31 0 0 1-.82-1.39h-.1a8.86 8.86 0 0 1-.77 1.44l-5.38 8.83h-5.71zm29.47-28.37h-4.31v-2.69h7.58v11.91a13.58 13.58 0 0 1-.14 2h.1a8.94 8.94 0 0 1 8.26-4.9c6.48 0 10.51 5.18 10.51 12.67s-4.56 12.63-10.9 12.63a8.85 8.85 0 0 1-8-4.94h-.1a13.59 13.59 0 0 1 .14 2v2.35h-3.17zm10.85 28.71c4.27 0 7.82-3.55 7.82-9.7 0-5.9-3.17-9.7-7.68-9.7-4 0-7.82 2.88-7.82 9.75 0 4.84 2.52 9.64 7.68 9.64zm28.32-22.38a12.65 12.65 0 1 1-12.72 12.53 12.5 12.5 0 0 1 12.72-12.53zm0 22.37a9.53 9.53 0 0 0 9.41-9.84 9.39 9.39 0 1 0-18.77 0 9.52 9.52 0 0 0 9.36 9.84zm15.69-.33h3.83l6.2-9.89-5.66-8.93h-4.13v-2.69h6.1l4.85 8c.38.62.77 1.39.77 1.39h.1s.34-.72.77-1.44l4.94-7.92h5.86v2.69h-4l-5.71 8.9 6.29 9.84h3.62v2.69h-5.66l-5.42-8.88a13.31 13.31 0 0 1-.82-1.39h-.1a8.86 8.86 0 0 1-.77 1.44l-5.38 8.83h-5.71zm689.51-21.64c4.08 0 12.58 1.54 12.58 6.72v3.6h-3.26v-2.69c0-3.31-5.76-4.61-9.22-4.61-7.82 0-13.73 6-13.73 14.11 0 8.4 5.9 14.74 13.92 14.74 2.74 0 9.55-1.06 9.55-4.61v-2.64h3.22v3.6c0 4.9-8.21 6.67-12.86 6.67-10.08 0-17.33-7.87-17.33-17.67a16.83 16.83 0 0 1 17.13-17.22zm21.98 24.92v2.45c0 2.83 3.5 4.46 7.39 4.46 4.37 0 7.54-2.16 7.54-6.1 0-4.42-4.08-6-8.45-7.58s-9-3.46-9-9.36 4.75-8.79 10.27-8.79c4.8 0 9.75 1.87 9.75 5.28v3.6h-3.22v-2.5c0-2.16-3.5-3.31-6.53-3.31-3.84 0-6.82 1.87-6.82 5.47 0 4.08 3.65 5.38 7.73 7 4.9 1.82 9.75 3.7 9.75 9.89 0 6-4.75 9.5-11 9.5-4.85 0-10.61-2.16-10.61-6.77v-3.22zm27.17 0v2.45c0 2.83 3.5 4.46 7.39 4.46 4.37 0 7.54-2.16 7.54-6.1 0-4.42-4.08-6-8.45-7.58s-9-3.46-9-9.36 4.75-8.79 10.27-8.79c4.8 0 9.75 1.87 9.75 5.28v3.6h-3.22v-2.5c0-2.16-3.5-3.31-6.53-3.31-3.84 0-6.82 1.87-6.82 5.47 0 4.08 3.65 5.38 7.73 7 4.9 1.82 9.75 3.7 9.75 9.89 0 6-4.75 9.5-11 9.5-4.85 0-10.61-2.16-10.61-6.77v-3.22zm53.28-24.92c5.81 0 12.72 2.4 12.72 6.63v3.7h-3.22v-2.58c0-3.17-5.19-4.75-9.46-4.75-8.59 0-14.07 6-14.07 14.35s5.62 14.5 14 14.5c3.36 0 10.32-1.06 10.32-4.9v-5.2h-7.06v-2.78h10.23v8.78c0 5.23-8.45 7.15-13.54 7.15-10.37 0-17.47-7.54-17.47-17.47s7.04-17.43 17.55-17.43zm18.89 31.64h3.74v-17.72a.94.94 0 0 0-1.06-1.06h-3.26v-2.69h4.58c2 0 2.93.82 2.93 2.74v1.63a17.31 17.31 0 0 1-.1 1.82h.1c1.2-3.65 3.89-6.43 7.63-6.43a7.37 7.37 0 0 1 1.34.14v3.22a9.36 9.36 0 0 0-1.25-.1c-5.42 0-7.63 6.1-7.63 10.9v7.54h3.74v2.69h-10.76zm18.93 0h4.07v-18.77h-4.32v-2.69h7.58v21.46h4.08v2.69h-11.43zm3.89-31.06h3.7v4.08h-3.7zm22.18 9.02a8.69 8.69 0 0 1 7.87 4.7h.1a11.93 11.93 0 0 1-.14-1.87v-9.17h-4.32v-2.69h7.58v30a.94.94 0 0 0 1.06 1.06h2.69v2.69h-4c-2.06 0-2.88-.91-2.88-2.64v-.43a4.78 4.78 0 0 1 .19-1.49h-.1a9 9 0 0 1-8.5 5.14c-6.48 0-10.46-5.18-10.46-12.62.01-7.68 4.47-12.68 10.91-12.68zm.1 22.37c4 0 7.83-2.88 7.83-9.7 0-4.94-2.5-9.7-7.63-9.7-4.32 0-7.83 3.55-7.83 9.7-.01 5.91 3.11 9.7 7.62 9.7zm18.52-5.13h3v1.73c0 2.45 3.5 3.5 6.29 3.5 3.07 0 5.67-1.34 5.67-3.79 0-2.78-3.07-3.74-6.53-5-3.65-1.34-7.49-3-7.49-7.2 0-4.42 4.32-6.43 8.35-6.43 3.26 0 8 1.39 8 4.7v2.78h-3v-1.78c0-1.78-2.4-2.88-4.94-2.88s-5.09 1.15-5.09 3.5c0 2.64 2.93 3.74 6.1 4.9 3.74 1.34 7.87 2.93 7.87 7.25s-3.75 6.82-9.12 6.82c-4.46 0-9.12-2-9.12-5.71z"/><path d="M82.89 534.97a8.62 8.62 0 0 1 8.83 8.69 8.835 8.835 0 1 1-17.67 0 8.61 8.61 0 0 1 8.84-8.69zm0 14.86c3.07 0 5.59-2.66 5.59-6.17a5.6 5.6 0 1 0-11.18 0c-.01 3.5 2.51 6.16 5.59 6.16zm10.89.11h2v-12.31h-2v-2.41h5.18l7.18 11a8.4 8.4 0 0 1 .62 1.44h.07a13 13 0 0 1-.1-1.61v-8.42h-2.13v-2.41h7.3v2.38h-2v14.67h-3.14l-7.16-10.9a9.35 9.35 0 0 1-.62-1.44h-.1a10.84 10.84 0 0 1 .12 1.58v8.42h2.11v2.35h-7.3zm20.33 0h2v-12.31h-2v-2.41h12.65v4.39h-2.69v-1.87h-4.78v4.68h5.62v2.52h-5.62v4.8h5.14v-1.92h2.69v4.44h-13zm21.36 0h2v-12.31h-2v-2.41h7.37a11.76 11.76 0 0 1 3.55.41c3.31 1 5.52 3.91 5.52 8.11 0 4-2 6.94-5.28 8a11 11 0 0 1-3.77.5h-7.39zm7.25-.17a7.23 7.23 0 0 0 2.78-.43c1.94-.79 3.17-2.78 3.17-5.57s-1.3-4.85-3.29-5.62a6.9 6.9 0 0 0-2.66-.38h-2.06v12zm11.37.17h2v-12.31h-2v-2.41h7.25v2.38h-2.06v12.31h2.06v2.35h-7.25zm9.39 0h2l1-12.31h-2.06v-2.41h5.54l3.79 9.62a13.13 13.13 0 0 1 .41 1.42 11 11 0 0 1 .43-1.42l3.77-9.62h5.54v2.38h-2l1 12.31h2v2.35h-7v-2.35h1.9l-.62-8.59a10.28 10.28 0 0 1 .07-1.58h-.07a12.81 12.81 0 0 1-.41 1.51l-3.17 7.88h-2.69l-3.31-7.85a11 11 0 0 1-.38-1.51h-.1a10.31 10.31 0 0 1 .07 1.58l-.62 8.59h1.92v2.35h-7zm23.56 0h2v-12.31h-2v-2.41h12.65v4.39H197v-1.87h-4.78v4.68h5.62v2.52h-5.62v4.8h5.14v-1.92h2.69v4.44h-13zm15.36 0h2v-12.31h-2v-2.41h5.2l7.18 11a8.4 8.4 0 0 1 .62 1.44h.07a13 13 0 0 1-.1-1.61v-8.42h-2.11v-2.41h7.34v2.38h-2v14.67h-3.14l-7.18-10.92a9.35 9.35 0 0 1-.62-1.44h-.1a10.84 10.84 0 0 1 .12 1.58v8.42h2.11v2.35h-7.3zm23.14-3.14v1.27c0 1.1 1.39 1.75 3 1.75s3-.74 3-2.11c0-1.73-1.94-2.28-3.91-3-2.28-.86-4.51-1.9-4.51-4.94 0-3.43 2.78-4.75 5.71-4.75 2.69 0 5.4 1 5.4 3v2.2h-2.86v-1.15c0-.86-1.27-1.32-2.54-1.32s-2.54.58-2.54 1.87c0 1.56 1.58 2.11 3.36 2.78 2.54.91 5.09 1.92 5.09 5.11 0 3.48-2.93 5.09-6.14 5.09-2.83 0-5.86-1.27-5.86-3.84v-1.94zm11.47 3.14h2v-12.31h-2v-2.41h7.25v2.38h-2.06v12.31h2.06v2.35h-7.25zm18.17-14.97a8.62 8.62 0 0 1 8.83 8.69 8.835 8.835 0 1 1-17.67 0 8.61 8.61 0 0 1 8.84-8.69zm0 14.86c3.07 0 5.59-2.66 5.59-6.17a5.6 5.6 0 1 0-11.18 0c.01 3.5 2.52 6.16 5.59 6.16zm10.9.11h2v-12.31h-2v-2.41h5.18l7.18 11a8.4 8.4 0 0 1 .62 1.44h.07a13 13 0 0 1-.1-1.61v-8.42h-2.11v-2.41h7.3v2.38h-2v14.67h-3.14l-7.18-10.92a9.35 9.35 0 0 1-.62-1.44h-.1a10.84 10.84 0 0 1 .12 1.58v8.42h2.11v2.35h-7.3zm647.86 0h2v-12.17h-3.22v2.57h-2.62v-5.12h14.93v5.09h-2.66v-2.57h-3.24v12.17h2.06v2.35h-7.25zm12.07-14.72h6.65v2.38h-2l2.21 9.72a12.27 12.27 0 0 1 .19 1.49h.1a9.79 9.79 0 0 1 .26-1.49l3.18-12.1h2.52l3.19 12.1a9.86 9.86 0 0 1 .26 1.49h.1a12.15 12.15 0 0 1 .19-1.49l2.21-9.72h-2v-2.38h6.65v2.38h-1.56l-3.56 14.69h-3.53l-2.86-10.75a10.17 10.17 0 0 1-.26-1.56h-.07a10 10 0 0 1-.26 1.56l-2.86 10.75h-3.53l-3.63-14.66h-1.56zm33.7-.25a8.61 8.61 0 0 1 8.83 8.69 8.835 8.835 0 1 1-17.67 0 8.61 8.61 0 0 1 8.84-8.69zm0 14.86c3.07 0 5.59-2.66 5.59-6.17a5.6 5.6 0 1 0-11.18 0c0 3.5 2.48 6.16 5.59 6.16zm17.04.11h2v-12.31h-2v-2.41h7.37a11.75 11.75 0 0 1 3.55.41c3.31 1 5.52 3.91 5.52 8.11 0 4-2 6.94-5.28 8a11 11 0 0 1-3.77.5h-7.39zm7.25-.17a7.23 7.23 0 0 0 2.78-.43c1.94-.79 3.17-2.78 3.17-5.57s-1.3-4.85-3.29-5.62a6.9 6.9 0 0 0-2.66-.38h-2.06v12zm11.37.17h2v-12.31h-2v-2.41h7.23v2.38h-2v12.31h2v2.35h-7.25zm9.39 0h2l1-12.31h-2.06v-2.41h5.54l3.79 9.62a13.13 13.13 0 0 1 .41 1.42 11 11 0 0 1 .43-1.42l3.77-9.62h5.54v2.38h-2l1 12.31h2v2.35h-7v-2.35h1.9l-.62-8.59a10.28 10.28 0 0 1 .07-1.58h-.07a12.85 12.85 0 0 1-.41 1.51l-3.26 7.85h-2.69l-3.26-7.85a11 11 0 0 1-.38-1.51h-.1a10.33 10.33 0 0 1 .07 1.58l-.62 8.59h1.92v2.35h-7zm23.56 0h2v-12.31h-2v-2.41h12.65v4.39h-2.69v-1.87h-4.78v4.68h5.62v2.52h-5.62v4.8h5.1v-1.92h2.69v4.44h-13zm15.36 0h2v-12.31h-2v-2.41h5.18l7.18 11a8.4 8.4 0 0 1 .62 1.44h.07a12.9 12.9 0 0 1-.1-1.61v-8.42h-2.11v-2.41h7.3v2.38h-2v14.67h-3.22l-7.18-10.92a9.35 9.35 0 0 1-.62-1.44h-.1a10.91 10.91 0 0 1 .12 1.58v8.42h2.11v2.35h-7.3zm23.14-3.14v1.27c0 1.1 1.39 1.75 3 1.75s3-.74 3-2.11c0-1.73-1.94-2.28-3.91-3-2.28-.86-4.51-1.9-4.51-4.94 0-3.43 2.78-4.75 5.71-4.75 2.69 0 5.4 1 5.4 3v2.2h-2.91v-1.15c0-.86-1.27-1.32-2.54-1.32s-2.54.58-2.54 1.87c0 1.56 1.58 2.11 3.36 2.78 2.54.91 5.09 1.92 5.09 5.11 0 3.48-2.93 5.09-6.14 5.09-2.83 0-5.86-1.27-5.86-3.84v-1.94zm11.47 3.14h2v-12.31h-2v-2.41h7.25v2.38h-2.06v12.31h2.06v2.35h-7.25zm18.17-14.97a8.61 8.61 0 0 1 8.83 8.69 8.835 8.835 0 1 1-17.67 0 8.61 8.61 0 0 1 8.84-8.69zm0 14.86c3.07 0 5.59-2.66 5.59-6.17a5.6 5.6 0 1 0-11.18 0c0 3.5 2.52 6.16 5.59 6.16zm10.89.11h2v-12.31h-2v-2.41h5.18l7.18 11a8.4 8.4 0 0 1 .62 1.44h.07a13 13 0 0 1-.1-1.61v-8.42h-2.11v-2.41h7.3v2.38h-2v14.67h-3.14l-7.18-10.92a9.35 9.35 0 0 1-.62-1.44h-.1a10.77 10.77 0 0 1 .12 1.58v8.42h2.11v2.35h-7.3zm23.14-3.14v1.27c0 1.1 1.39 1.75 3 1.75s3-.74 3-2.11c0-1.73-1.94-2.28-3.91-3-2.28-.86-4.51-1.9-4.51-4.94 0-3.43 2.78-4.75 5.71-4.75 2.69 0 5.4 1 5.4 3v2.2h-2.86v-1.15c0-.86-1.27-1.32-2.54-1.32s-2.54.58-2.54 1.87c0 1.56 1.58 2.11 3.36 2.78 2.54.91 5.09 1.92 5.09 5.11 0 3.48-2.93 5.09-6.14 5.09-2.83 0-5.86-1.27-5.86-3.84v-1.94z" fill="#dd0c29" stroke="#000" stroke-miterlimit="10" stroke-width=".25"/></svg>